<?xml version="1.0" encoding="UTF-8" standalone="no"?>
<!DOCTYPE svg PUBLIC "-//W3C//DTD SVG 1.1//EN" "http://www.w3.org/Graphics/SVG/1.1/DTD/svg11.dtd">
<svg width="100%" height="100%" viewBox="0 0 834 834" version="1.1" xmlns="http://www.w3.org/2000/svg" xmlns:xlink="http://www.w3.org/1999/xlink" xml:space="preserve" xmlns:serif="http://www.serif.com/" style="fill-rule:evenodd;clip-rule:evenodd;stroke-linejoin:round;stroke-miterlimit:2;">
    <g transform="matrix(4.16667,0,0,4.16667,0,0)">
        <g transform="matrix(0.41404,0,0,0.41404,483.657,46.1773)">
            <g>
                <g transform="matrix(0.761315,0,0,0.761315,-1249.36,-326.852)">
                    <path d="M249.982,837.936C232.937,837.936 218.023,831.777 205.239,819.46C192.456,807.142 186.064,792.661 186.064,776.015C186.064,758.304 192.389,743.09 205.04,730.373C217.69,717.656 232.671,711.298 249.982,711.298C267.56,711.298 282.474,717.523 294.725,729.974C306.976,742.425 313.102,757.372 313.102,774.817C313.102,792.128 306.91,806.976 294.526,819.36C282.141,831.744 267.294,837.936 249.982,837.936Z" style="fill:white;fill-rule:nonzero;"/>
                </g>
                <g transform="matrix(0.761315,0,0,0.761315,-1249.36,-326.852)">
                    <path d="M189.06,576.669C189.06,564.817 193.321,554.63 201.844,546.108C210.366,537.585 220.62,533.324 232.604,533.324C267.893,533.324 301.151,540.016 332.377,553.399C363.604,566.782 391.103,585.291 414.872,608.928C438.642,632.564 457.218,659.996 470.601,691.223C483.984,722.45 490.676,755.841 490.676,791.396C490.676,803.38 486.448,813.634 477.992,822.156C469.536,830.679 459.316,834.94 447.331,834.94C435.346,834.94 425.126,830.679 416.67,822.156C408.214,813.634 403.986,803.38 403.986,791.396C403.986,760.102 396.229,731.472 380.716,705.505C365.202,679.538 344.462,658.798 318.495,643.284C292.528,627.771 263.898,620.014 232.604,620.014C220.62,620.014 210.366,615.786 201.844,607.33C193.321,598.874 189.06,588.654 189.06,576.669Z" style="fill:white;fill-rule:nonzero;"/>
                </g>
                <g transform="matrix(0.761315,0,0,0.761315,-1249.36,-326.852)">
                    <path d="M189.06,405.487C189.06,393.635 193.321,383.448 201.844,374.926C210.366,366.403 220.62,362.142 232.604,362.142C292.395,362.142 348.257,373.161 400.191,395.2C452.125,417.239 497.7,447.833 536.917,486.983C576.134,526.133 606.761,571.709 628.8,623.709C650.839,675.71 661.858,731.605 661.858,791.396C661.858,803.38 657.63,813.634 649.174,822.156C640.718,830.679 630.498,834.94 618.513,834.94C606.528,834.94 596.308,830.679 587.852,822.156C579.396,813.634 575.168,803.38 575.168,791.396C575.168,743.59 566.413,698.947 548.902,657.466C531.391,615.986 506.988,579.599 475.695,548.305C444.401,517.012 408.014,492.609 366.534,475.098C325.053,457.587 280.41,448.832 232.604,448.832C220.62,448.832 210.366,444.604 201.844,436.148C193.321,427.692 189.06,417.472 189.06,405.487Z" style="fill:white;fill-rule:nonzero;"/>
                </g>
            </g>
        </g>
    </g>
</svg>
